<svg xmlns="http://www.w3.org/2000/svg" xmlns:xlink="http://www.w3.org/1999/xlink" width="769.28" height="482.56" viewBox="0 0 576.96 361.92"><clipPath id="a"><path transform="scale(.24)" d="M0 0h2404.167v1503.73H0z" fill-rule="evenodd"/></clipPath><g clip-path="url(#a)"><path d="M137.227 284.898h86.442v50.425h-86.442z" fill="#fff"/><path fill="none" stroke="#000" d="M137.227 284.898h86.442v50.425h-86.442z" stroke-width=".72035"/><path d="M86.802 115.616A28.796 28.796 0 0 1 83.4 129.2a28.794 28.794 0 0 1-9.404 10.375 28.792 28.792 0 0 1-13.184 4.717 28.798 28.798 0 0 1-16.407-3.263 28.795 28.795 0 0 1-10.375-9.404 28.797 28.797 0 0 1-4.856-16.008 28.798 28.798 0 0 1 4.856-16.008 28.798 28.798 0 0 1 12.932-10.613 28.796 28.796 0 0 1 13.85-2.054 28.795 28.795 0 0 1 13.184 4.717A28.799 28.799 0 0 1 84.61 104.59a28.799 28.799 0 0 1 2.193 11.027z" fill="#f5f5f5"/><path fill="none" stroke="#666" d="M86.802 115.616A28.796 28.796 0 0 1 83.4 129.2a28.794 28.794 0 0 1-9.404 10.375 28.792 28.792 0 0 1-13.184 4.717 28.798 28.798 0 0 1-16.407-3.263 28.795 28.795 0 0 1-10.375-9.404 28.797 28.797 0 0 1-4.856-16.008 28.798 28.798 0 0 1 4.856-16.008 28.798 28.798 0 0 1 12.932-10.613 28.796 28.796 0 0 1 13.85-2.054 28.795 28.795 0 0 1 13.184 4.717A28.799 28.799 0 0 1 84.61 104.59a28.799 28.799 0 0 1 2.193 11.027z" stroke-width=".72035"/><symbol id="b"><path d="M.558 0H0v.133h.065c.008 0 .03.013.066.04l.052.041a.988.988 0 0 1-.018.188L.138.508.11.526a.806.806 0 0 0 .018.073.867.867 0 0 0 .029.07L.179.661C.18.659.18.654.177.648c0-.011.016-.025.049-.04a.634.634 0 0 1 .048-.02.394.394 0 0 0-.035-.124L.22.47C.231.424.238.39.241.368A.366.366 0 0 0 .247.309V.304A.202.202 0 0 0 .242.256l.051.037c.026.019.05.034.07.045a.148.148 0 0 0 .063.023C.465.36.496.35.52.33.545.31.558.276.558.234V0M.49.183C.49.194.478.205.454.214A.168.168 0 0 1 .39.23.161.161 0 0 1 .317.21 1.024 1.024 0 0 1 .201.132h.128c.107 0 .16.016.16.05z"/></symbol><symbol id="c"><path d="M.222 0H.153C.115 0 .088.016.071.047A.388.388 0 0 0 .042.22v.14A.168.168 0 0 1 .03.433.178.178 0 0 1 0 .471l.053.122a.256.256 0 0 0 .04-.077.407.407 0 0 0 .012-.114V.306C.105.238.11.191.12.165.126.143.138.133.153.133h.069V0z"/></symbol><symbol id="d"><path d="M.358 0H0v.133h.088C.103.133.117.133.13.13L.253.118A.23.23 0 0 0 .15.16C.13.178.122.204.122.238c0 .05.012.096.035.136.023.04.05.061.078.061C.268.435.297.407.321.35A.512.512 0 0 0 .358.144V0M.292.203a.225.225 0 0 1-.04.065C.24.284.225.292.21.292A.025.025 0 0 1 .193.285.02.02 0 0 1 .186.27c0-.014.01-.028.03-.041A.202.202 0 0 1 .293.203m.006.384L.248.493.174.529.134.449.044.5.1.6.168.56l.039.077.09-.05z"/></symbol><symbol id="e"><path d="M.306 0H0v.133h.257a.152.152 0 0 1-.02.056.364.364 0 0 1-.034.044l.04.116A.228.228 0 0 0 .291.262.499.499 0 0 0 .306.127V0m.003.532L.25.422l-.114.06.059.11.114-.06z"/></symbol><symbol id="f"><path d="M.428.204C.428.184.416.158.394.125A.398.398 0 0 0 .314.04C.28.013.25 0 .226 0a.21.21 0 0 0-.093.024A1.21 1.21 0 0 0 0 .108l.02.03A.389.389 0 0 1 .092.1.162.162 0 0 1 .15.09c.023 0 .045.006.068.019a.595.595 0 0 1 .092.07c.054.049.08.086.08.112C.39.303.385.32.375.341a.204.204 0 0 1-.043.06l.027.132a.243.243 0 0 0 .07-.18V.205z"/></symbol><symbol id="g"><path d="M.306.21H0v.134h.257A.152.152 0 0 1 .237.4a.364.364 0 0 1-.034.044l.04.116A.228.228 0 0 0 .291.473.499.499 0 0 0 .306.338V.211M.256.109.198 0 .083.06l.06.11.113-.06z"/></symbol><symbol id="h"><path d="M.114.176a.29.29 0 0 0-.01-.08A.651.651 0 0 0 .064 0L.035.012A.576.576 0 0 1 .042.2 1.73 1.73 0 0 1 .006.45.217.217 0 0 0 0 .486c0 .01.005.027.015.051.01.024.024.054.043.088L.087.454C.097.388.105.33.109.283.113.246.114.21.114.176z"/></symbol><use xlink:href="#b" transform="matrix(11.5256 0 0 -11.5256 44.121 117.93)" fill="#333"/><use xlink:href="#c" transform="matrix(11.5256 0 0 -11.5256 50.69 117.93)" fill="#333"/><use xlink:href="#d" transform="matrix(11.5256 0 0 -11.5256 52.846 117.93)" fill="#333"/><use xlink:href="#e" transform="matrix(11.5256 0 0 -11.5256 56.58 117.93)" fill="#333"/><use xlink:href="#f" transform="matrix(11.5256 0 0 -11.5256 60.154 120.41)" fill="#333"/><use xlink:href="#g" transform="matrix(11.5256 0 0 -11.5256 64.695 120.36)" fill="#333"/><use xlink:href="#h" transform="matrix(11.5256 0 0 -11.5256 68.977 118.317)" fill="#333"/><path d="M94.006 79.599H353.33v172.883H94.006z" fill="#fff"/><path fill="none" stroke="#000" d="M94.006 79.599H353.33v172.883H94.006z" stroke-width=".72035"/><symbol id="i"><path d="M.395 0H0v.133h.317A.456.456 0 0 1 .24.206 8.15 8.15 0 0 0 .185.25L.17.231a1.905 1.905 0 0 0-.051.053.094.094 0 0 0-.025.064C.093.38.096.404.1.417c.007.019.02.036.042.05A.501.501 0 0 0 .27.533l.082.032V.449a1.104 1.104 0 0 1-.117-.04C.208.398.194.389.194.384.194.38.205.368.229.346.26.316.287.287.309.262A.717.717 0 0 0 .394.136V0M.352.72V.61C.282.586.222.56.17.537A.883.883 0 0 1 .06.476V.55c.01.011.03.026.058.045A1.206 1.206 0 0 0 .352.72z"/></symbol><symbol id="j"><path d="M.428.204C.428.184.416.158.394.125A.398.398 0 0 0 .314.04C.28.013.25 0 .226 0a.21.21 0 0 0-.093.024A1.21 1.21 0 0 0 0 .108l.02.03A.389.389 0 0 1 .092.1.162.162 0 0 1 .15.09c.023 0 .045.006.068.019a.595.595 0 0 1 .092.07c.054.049.08.086.08.112C.39.303.385.32.375.341a.204.204 0 0 1-.043.06l.027.132a.243.243 0 0 0 .07-.18V.205m-.025.5L.344.596.23.655l.06.11.113-.06z"/></symbol><symbol id="k"><path d="M.448.248A.253.253 0 0 0 .377.082C.329.027.283 0 .237 0a.19.19 0 0 0-.09.026A1.3 1.3 0 0 0 0 .128l.02.028A.412.412 0 0 1 .108.11a.19.19 0 0 1 .157.017c.036.02.074.054.113.1A.25.25 0 0 0 .343.225a.1.1 0 0 0-.077.03.124.124 0 0 0-.029.087c0 .049.012.096.034.14.024.05.052.075.083.075.027 0 .049-.018.067-.054A.278.278 0 0 0 .448.374V.248m-.058.1C.38.4.362.425.334.425A.03.03 0 0 1 .31.414.042.042 0 0 1 .3.388C.3.376.308.366.32.358A.102.102 0 0 1 .37.348H.39z"/></symbol><symbol id="l"><path d="M.45 0a.592.592 0 0 0-.228.062.132.132 0 0 0-.07-.056A.188.188 0 0 0 .096 0H0v.133h.097c.029 0 .052.003.07.01a.08.08 0 0 1 .045.048.308.308 0 0 0 .072.102C.309.317.33.329.349.329.366.329.386.304.411.253A.34.34 0 0 0 .449.107V0M.358.148c0 .007-.007.02-.021.037-.016.02-.03.03-.04.03C.283.214.272.2.263.17A3.59 3.59 0 0 1 .347.141c.007 0 .01.002.01.007z"/></symbol><symbol id="m"><path d="M.178.176a.29.29 0 0 0-.01-.08A.651.651 0 0 0 .127 0l-.03.012A.576.576 0 0 1 .106.2 1.73 1.73 0 0 1 .07.45a.217.217 0 0 0-.006.037c0 .01.006.027.016.051.01.024.024.054.042.088l.03-.172C.16.388.168.33.172.283.176.246.178.21.178.176M.23.714A.118.118 0 0 0 .186.667.134.134 0 0 0 .123.652a.218.218 0 0 0-.045.006.221.221 0 0 1-.034.005H.035A.035.035 0 0 1 .02.655.194.194 0 0 0 .008.65L0 .656A.099.099 0 0 0 .022.69C.031.7.042.703.056.703L.073.702A.403.403 0 0 1 .14.693.134.134 0 0 1 .223.72L.23.714z"/></symbol><use xlink:href="#f" transform="matrix(11.5256 0 0 -11.5256 194.18 66.385)"/><use xlink:href="#c" transform="matrix(11.5256 0 0 -11.5256 199.26 63.903)"/><use xlink:href="#i" transform="matrix(11.5256 0 0 -11.5256 201.417 63.903)"/><use xlink:href="#j" transform="matrix(11.5256 0 0 -11.5256 206.016 66.385)"/><use xlink:href="#k" transform="matrix(11.5256 0 0 -11.5256 210.984 66.373)"/><use xlink:href="#l" transform="matrix(11.5256 0 0 -11.5256 215.754 63.903)"/><use xlink:href="#m" transform="matrix(11.5256 0 0 -11.5256 220.965 64.291)"/><path d="m158.837 94.006 28.814 14.407v14.407l-28.814 14.407V94.006z" fill="#9e9e9e"/><path d="m209.262 137.227-28.814-14.407v-14.407l28.814-14.407v43.22z" fill="#9e9e9e"/><path d="m158.837 187.651 28.814 14.407v14.407l-28.814 14.407v-43.221z" fill="#66b2ff"/><path d="m209.262 230.872-28.814-14.407v-14.407l28.814-14.407v43.221z" fill="#66b2ff"/><path stroke-width="2.1610500000000004" stroke-miterlimit="10" fill="none" stroke="#000" d="M86.802 209.262h64.76"/><path d="m156.424 209.262-6.483 3.241 1.62-3.241-1.62-3.242 6.483 3.242z"/><path stroke-width="2.1610500000000004" stroke-miterlimit="10" fill="none" stroke="#000" d="m156.424 209.262-6.483 3.241 1.62-3.241-1.62-3.242 6.483 3.242zM86.802 115.616h64.76"/><path d="m156.424 115.616-6.483 3.242 1.62-3.242-1.62-3.241 6.483 3.241z"/><path stroke-width="2.1610500000000004" stroke-miterlimit="10" fill="none" stroke="#000" d="m156.424 115.616-6.483 3.242 1.62-3.242-1.62-3.241 6.483 3.241z"/><path d="M7.564 166.04h50.424v28.815H7.564z" fill="#dae8fc"/><path fill="none" stroke="#6c8ebf" d="M7.564 166.04h50.424v28.815H7.564z" stroke-width=".72035"/><symbol id="n"><path d="M.453.234A.18.18 0 0 0 .407.123a.376.376 0 0 0-.1-.088A.191.191 0 0 0 .214 0 .301.301 0 0 0 .14.01.646.646 0 0 0 .07.033L0 .059l.008.02A5.09 5.09 0 0 1 .075.066.257.257 0 0 1 .27.099a.376.376 0 0 1 .105.092C.403.23.417.263.417.292a.174.174 0 0 1-.022.082.35.35 0 0 1-.05.07L.371.52a.275.275 0 0 0 .06-.075.203.203 0 0 0 .02-.093v-.12z"/></symbol><symbol id="o"><path d="M.278.212H0v.085h.243a.221.221 0 0 1-.014.088.263.263 0 0 1-.046.06l.038.08a.277.277 0 0 0 .044-.07.415.415 0 0 0 .013-.124v-.12M.274.116.238.045l-.08.04.037.071.079-.04M.163.07.126 0l-.08.042.037.07.08-.042z"/></symbol><symbol id="p"><path d="M.408.249a.266.266 0 0 0-.06-.16C.304.029.253 0 .195 0a.317.317 0 0 0-.067.007.67.67 0 0 0-.065.019A4.89 4.89 0 0 1 0 .048l.008.017.057-.013a.225.225 0 0 1 .167.023C.26.09.288.114.315.144c.014.015.034.04.06.075a.185.185 0 0 0-.099.02C.252.257.24.283.24.32c0 .033.008.064.024.093.018.033.041.05.069.05.028 0 .049-.017.061-.05A.313.313 0 0 0 .408.305V.249M.377.302a.162.162 0 0 1-.026.065.04.04 0 0 1-.032.016.035.035 0 0 1-.024-.01.029.029 0 0 1-.01-.022.04.04 0 0 1 .022-.037.15.15 0 0 1 .07-.012z"/></symbol><symbol id="q"><path d="M.88 0H.293a.145.145 0 0 0-.05.009.255.255 0 0 0-.042.022A.124.124 0 0 0 .16.006.242.242 0 0 0 .094 0H0v.085h.094c.027 0 .045.002.057.007.019.007.028.022.028.045 0 .01 0 .019-.002.028a.33.33 0 0 1-.005.032l.02.03A.264.264 0 0 1 .24.123.094.094 0 0 1 .314.085a.387.387 0 0 1 .199.07l.085.059C.625.23.648.243.67.25c.024.008.05.012.079.012.044 0 .078-.013.1-.038a.147.147 0 0 0 .031-.1V0M.8.123C.8.139.79.15.772.16a.165.165 0 0 1-.07.013.288.288 0 0 1-.118-.032 34.359 34.359 0 0 1-.11-.056H.7c.035 0 .061.003.077.01C.793.1.801.11.801.122z"/></symbol><symbol id="r"><path d="M.278 0H0v.085h.243a.221.221 0 0 1-.014.088.263.263 0 0 1-.046.06l.038.08a.277.277 0 0 0 .044-.07A.415.415 0 0 0 .278.12V0M.275.482.24.412l-.08.04.037.071.08-.04M.163.436.127.367.047.41l.038.07.08-.042z"/></symbol><use xlink:href="#n" transform="matrix(8.6442 0 0 -8.6442 22.97 183.754)"/><use xlink:href="#o" transform="matrix(8.6442 0 0 -8.6442 26.589 183.564)"/><use xlink:href="#p" transform="matrix(8.6442 0 0 -8.6442 29.204 183.631)"/><use xlink:href="#q" transform="matrix(8.6442 0 0 -8.6442 32.432 181.732)"/><use xlink:href="#r" transform="matrix(8.6442 0 0 -8.6442 39.745 181.732)"/><path d="M14.767 173.244h50.425v28.814H14.767z" fill="#dae8fc"/><path fill="none" stroke="#6c8ebf" d="M14.767 173.244h50.425v28.814H14.767z" stroke-width=".72035"/><use xlink:href="#n" transform="matrix(8.6442 0 0 -8.6442 30.173 190.957)"/><use xlink:href="#o" transform="matrix(8.6442 0 0 -8.6442 33.792 190.767)"/><use xlink:href="#p" transform="matrix(8.6442 0 0 -8.6442 36.408 190.835)"/><use xlink:href="#q" transform="matrix(8.6442 0 0 -8.6442 39.636 188.936)"/><use xlink:href="#r" transform="matrix(8.6442 0 0 -8.6442 46.949 188.936)"/><path d="M21.97 180.448h50.425v28.814H21.971z" fill="#dae8fc"/><path fill="none" stroke="#6c8ebf" d="M21.97 180.448h50.425v28.814H21.971z" stroke-width=".72035"/><use xlink:href="#n" transform="matrix(8.6442 0 0 -8.6442 37.377 198.16)"/><use xlink:href="#o" transform="matrix(8.6442 0 0 -8.6442 40.996 197.97)"/><use xlink:href="#p" transform="matrix(8.6442 0 0 -8.6442 43.611 198.038)"/><use xlink:href="#q" transform="matrix(8.6442 0 0 -8.6442 46.84 196.14)"/><use xlink:href="#r" transform="matrix(8.6442 0 0 -8.6442 54.152 196.14)"/><path d="M29.174 187.651H79.6v28.814H29.174z" fill="#dae8fc"/><path fill="none" stroke="#6c8ebf" d="M29.174 187.651H79.6v28.814H29.174z" stroke-width=".72035"/><use xlink:href="#n" transform="matrix(8.6442 0 0 -8.6442 44.58 205.364)"/><use xlink:href="#o" transform="matrix(8.6442 0 0 -8.6442 48.2 205.174)"/><use xlink:href="#p" transform="matrix(8.6442 0 0 -8.6442 50.815 205.242)"/><use xlink:href="#q" transform="matrix(8.6442 0 0 -8.6442 54.043 203.343)"/><use xlink:href="#r" transform="matrix(8.6442 0 0 -8.6442 61.356 203.343)"/><path d="M36.378 194.855h50.424v28.814H36.378z" fill="#dae8fc"/><path fill="none" stroke="#6c8ebf" d="M36.378 194.855h50.424v28.814H36.378z" stroke-width=".72035"/><symbol id="s"><path d="M.306.224H0v.132h.257a.152.152 0 0 1-.02.057.364.364 0 0 1-.034.044l.04.116A.228.228 0 0 0 .291.486.499.499 0 0 0 .306.35V.224M.298.138.248.043.174.079.134 0l-.09.05.055.1.069-.04.039.077.09-.05z"/></symbol><symbol id="t"><path d="M.806 0H.289a.085.085 0 0 0-.056.017.137.137 0 0 0-.035.057.198.198 0 0 0-.06-.06A.142.142 0 0 0 .07 0H0v.133h.07c.038 0 .066.01.086.029.023.022.037.06.044.114L.233.27a.788.788 0 0 1-.004-.08c0-.019.005-.033.015-.043A.051.051 0 0 1 .282.133c.016 0 .03.003.044.01.014.006.035.02.064.04l.175.125C.585.323.6.333.61.34a.133.133 0 0 0 .07.022.109.109 0 0 0 .087-.039C.793.292.806.247.806.187V0M.737.183c0 .014-.011.026-.034.035a.161.161 0 0 1-.137-.01A1.024 1.024 0 0 1 .448.133h.128c.107 0 .16.016.16.05z"/></symbol><symbol id="u"><path d="M.306 0H0v.133h.257a.152.152 0 0 1-.02.056.364.364 0 0 1-.034.044l.04.116A.228.228 0 0 0 .291.262.499.499 0 0 0 .306.127V0M.298.522.248.427.174.463.134.384l-.09.05.055.1.069-.04.039.078.09-.05z"/></symbol><use xlink:href="#f" transform="matrix(10.80524 0 0 -10.80524 48.136 214.004)"/><use xlink:href="#s" transform="matrix(10.80524 0 0 -10.80524 52.393 214.094)"/><use xlink:href="#k" transform="matrix(10.80524 0 0 -10.80524 55.722 213.994)"/><use xlink:href="#c" transform="matrix(10.80524 0 0 -10.80524 60.7 211.678)"/><use xlink:href="#t" transform="matrix(10.80524 0 0 -10.80524 62.722 211.678)"/><use xlink:href="#u" transform="matrix(10.80524 0 0 -10.80524 71.053 211.678)"/><symbol id="v"><path d="M0 0z"/></symbol><symbol id="w"><path d="M.434.191C.434.141.408.097.356.058A.29.29 0 0 0 .178 0a.19.19 0 0 0-.131.042A.151.151 0 0 0 0 .16C0 .207.006.25.018.284.03.324.057.372.096.43l.03-.02a.527.527 0 0 1-.054-.1.232.232 0 0 1-.016-.083c0-.03.01-.053.032-.07A.157.157 0 0 1 .182.135c.057 0 .103.01.14.033.035.022.053.051.053.087v.023a2.242 2.242 0 0 1-.02.137L.313.646.29.663c0 .032.015.08.045.147L.356.799A.057.057 0 0 1 .354.783C.354.77.361.76.374.751L.432.72A.426.426 0 0 0 .42.66.426.426 0 0 0 .397.605L.383.611.396.528.42.397A.878.878 0 0 0 .434.301V.19z"/></symbol><symbol id="x"><path d="M.292 0H.07a.077.077 0 0 0-.049.014C.007.024 0 .043 0 .068a.596.596 0 0 0 .009.097h.018A.037.037 0 0 1 .044.142.065.065 0 0 1 .077.133h.168a.295.295 0 0 1-.039.115.204.204 0 0 1-.064.061l.035.152A.255.255 0 0 0 .267.34.56.56 0 0 0 .292.157V0z"/></symbol><use xlink:href="#b" transform="matrix(9.36454 0 0 -9.36454 162.153 117.518)"/><use xlink:href="#c" transform="matrix(9.36454 0 0 -9.36454 167.49 117.518)"/><use xlink:href="#d" transform="matrix(9.36454 0 0 -9.36454 169.241 117.518)"/><use xlink:href="#e" transform="matrix(9.36454 0 0 -9.36454 172.276 117.518)"/><use xlink:href="#f" transform="matrix(9.36454 0 0 -9.36454 175.18 119.534)"/><use xlink:href="#g" transform="matrix(9.36454 0 0 -9.36454 178.868 119.493)"/><use xlink:href="#h" transform="matrix(9.36454 0 0 -9.36454 182.348 117.833)"/><use xlink:href="#v" transform="matrix(9.36454 0 0 -9.36454 183.758 118.858)"/><use xlink:href="#w" transform="matrix(9.36454 0 0 -9.36454 186.522 119.196)"/><use xlink:href="#x" transform="matrix(9.36454 0 0 -9.36454 191.065 117.518)"/><use xlink:href="#l" transform="matrix(9.36454 0 0 -9.36454 193.477 117.518)"/><use xlink:href="#f" transform="matrix(9.36454 0 0 -9.36454 162.878 213.18)"/><use xlink:href="#s" transform="matrix(9.36454 0 0 -9.36454 166.568 213.258)"/><use xlink:href="#k" transform="matrix(9.36454 0 0 -9.36454 169.453 213.17)"/><use xlink:href="#t" transform="matrix(9.36454 0 0 -9.36454 173.329 211.163)"/><use xlink:href="#u" transform="matrix(9.36454 0 0 -9.36454 180.549 211.163)"/><use xlink:href="#v" transform="matrix(9.36454 0 0 -9.36454 183.407 212.503)"/><use xlink:href="#w" transform="matrix(9.36454 0 0 -9.36454 186.17 212.841)"/><use xlink:href="#x" transform="matrix(9.36454 0 0 -9.36454 190.714 211.163)"/><use xlink:href="#l" transform="matrix(9.36454 0 0 -9.36454 193.125 211.163)"/><path d="M101.21 151.634h57.627v21.61H101.21z" fill="#ffe6cc"/><path fill="none" stroke="#d79b00" d="M101.21 151.634h57.627v21.61H101.21z" stroke-width=".72035"/><symbol id="y"><path d="M.622 0h-.41a2.04 2.04 0 0 0-.079.002.179.179 0 0 0-.041.01.122.122 0 0 0-.066.056A.175.175 0 0 0 0 .162.247.247 0 0 0 .014.25C.02.269.028.286.037.302l.027.044L.092.33A.53.53 0 0 1 .063.266.146.146 0 0 1 .056.22a.08.08 0 0 1 .017-.05A.083.083 0 0 1 .12.142a.655.655 0 0 1 .103-.01h.353a.376.376 0 0 1-.023.054.386.386 0 0 1-.033.047l.044.113A.305.305 0 0 0 .612.25a.491.491 0 0 0 .01-.112V0M.449.463.4.37.325.405l-.04-.08-.09.05.054.1.07-.039.038.077.091-.05z"/></symbol><symbol id="z"><path d="M.643 0A.315.315 0 0 0 .48.033.173.173 0 0 0 .43.006.257.257 0 0 0 .363 0h-.08a.075.075 0 0 0-.051.017.146.146 0 0 0-.034.057.168.168 0 0 0-.06-.059A.142.142 0 0 0 .07 0H0v.133h.07c.034 0 .062.01.085.029C.185.187.2.225.2.276L.232.27a2.64 2.64 0 0 1-.003-.08c0-.017.006-.03.017-.042a.055.055 0 0 1 .04-.016h.06c.039 0 .067.005.084.016.02.014.03.039.03.075 0 .008.003.015.008.021a.13.13 0 0 0 .018.016l.019.015A.36.36 0 0 0 .507.23.433.433 0 0 0 .499.159.348.348 0 0 1 .587.134a.109.109 0 0 1-.012.043.11.11 0 0 0-.012.035c0 .009 0 .015.003.02 0 .002.004.007.01.015l.042.056A.279.279 0 0 0 .642.184V0m-.15.584L.441.482l-.091.05L.4.63.49.584M.586.468l-.054-.1-.07.04L.425.33.333.38l.05.094L.457.44l.041.08.089-.05z"/></symbol><symbol id="A"><path d="M0 0v.133h.083c.035 0 .062 0 .08.002.028.003.05.008.064.015.018.01.026.022.026.04 0 .008-.005.02-.016.032A.127.127 0 0 1 .2.252L.183.235a1.18 1.18 0 0 0-.047.046.098.098 0 0 0-.027.067c0 .033.002.056.007.069.006.019.02.036.041.05a.47.47 0 0 0 .072.04l.09.036.094.036V.462L.36.446A1.788 1.788 0 0 1 .262.413C.227.399.21.389.21.383a.18.18 0 0 1 0-.01c0-.007.003-.015.01-.022A.488.488 0 0 1 .276.3C.298.284.327.257.366.22A.69.69 0 0 1 .437.158.12.12 0 0 1 .506.133h.07V0H.51a.146.146 0 0 0-.082.032A.47.47 0 0 0 .353.1a1.098 1.098 0 0 0-.054.066C.3.11.281.07.246.043.207.014.146 0 .062 0H0m.413.733V.625C.343.599.283.574.23.55A.883.883 0 0 1 .119.489v.075C.13.575.15.59.177.609a1.206 1.206 0 0 0 .236.124z"/></symbol><use xlink:href="#y" transform="matrix(8.6442 0 0 -8.6442 119.931 163.723)"/><use xlink:href="#z" transform="matrix(8.6442 0 0 -8.6442 125.005 163.723)"/><use xlink:href="#c" transform="matrix(8.6442 0 0 -8.6442 130.666 163.723)"/><use xlink:href="#A" transform="matrix(8.6442 0 0 -8.6442 132.284 163.723)"/><use xlink:href="#e" transform="matrix(8.6442 0 0 -8.6442 136.969 163.723)"/><path stroke-miterlimit="10" fill="none" stroke="#000" d="M130.023 115.616v31.429" stroke-width=".72035"/><path d="m130.023 150.827-2.521-5.043 2.521 1.26 2.521-1.26-2.52 5.043z"/><path stroke-miterlimit="10" fill="none" stroke="#000" d="m130.023 150.827-2.521-5.043 2.521 1.26 2.521-1.26-2.52 5.043zM129.663 173.244v31.429" stroke-width=".72035"/><path d="m129.663 208.455-2.521-5.043 2.52 1.26 2.522-1.26-2.521 5.043z"/><path stroke-miterlimit="10" fill="none" stroke="#000" d="m129.663 208.455-2.521-5.043 2.52 1.26 2.522-1.26-2.521 5.043z" stroke-width=".72035"/><path d="M310.11 115.616a28.791 28.791 0 0 1-3.402 13.583 28.79 28.79 0 0 1-9.403 10.375 28.788 28.788 0 0 1-13.184 4.717 28.799 28.799 0 0 1-16.407-3.263 28.804 28.804 0 0 1-13.038-14.385 28.796 28.796 0 0 1-2.055-13.851 28.79 28.79 0 0 1 4.717-13.184 28.8 28.8 0 0 1 12.932-10.613 28.8 28.8 0 0 1 16.648-1.64 28.796 28.796 0 0 1 12.658 5.988 28.793 28.793 0 0 1 8.341 11.246 28.785 28.785 0 0 1 2.193 11.027z" fill="#f5f5f5"/><path fill="none" stroke="#666" d="M310.11 115.616a28.791 28.791 0 0 1-3.402 13.583 28.79 28.79 0 0 1-9.403 10.375 28.788 28.788 0 0 1-13.184 4.717 28.799 28.799 0 0 1-16.407-3.263 28.804 28.804 0 0 1-13.038-14.385 28.796 28.796 0 0 1-2.055-13.851 28.79 28.79 0 0 1 4.717-13.184 28.8 28.8 0 0 1 12.932-10.613 28.8 28.8 0 0 1 16.648-1.64 28.796 28.796 0 0 1 12.658 5.988 28.793 28.793 0 0 1 8.341 11.246 28.785 28.785 0 0 1 2.193 11.027z" stroke-width=".72035"/><symbol id="B"><path d="M.569.355h-.05A.36.36 0 0 1 .487.354C.48.354.477.351.477.348A.113.113 0 0 1 .505.336C.512.334.518.33.52.328.523.324.524.319.524.312a.224.224 0 0 0-.02-.083C.491.197.48.177.466.169A.329.329 0 0 0 .358.134a.713.713 0 0 0-.153-.02.261.261 0 0 0-.148.038.115.115 0 0 0-.057.1c0 .04.008.078.025.114A.85.85 0 0 0 .137.53l.029-.02A.61.61 0 0 1 .095.41a.17.17 0 0 1-.02-.077c0-.035.015-.06.043-.078A.278.278 0 0 1 .252.23c.031 0 .074.006.13.018.055.011.083.02.083.03 0 .003-.01.007-.032.01a.46.46 0 0 1-.07.005C.326.293.308.301.308.317c0 .008.004.021.013.04l.019.04a.137.137 0 0 0 .069.066c.034.016.07.025.107.025h.053V.355M.366.063.318.01.267.04.229 0 .167.034l.046.059.054-.034.038.044.061-.04z"/></symbol><symbol id="C"><path d="M.428.204C.428.184.416.158.394.125A.398.398 0 0 0 .314.04C.28.013.25 0 .226 0a.21.21 0 0 0-.093.024A1.21 1.21 0 0 0 0 .108l.02.03A.389.389 0 0 1 .092.1.162.162 0 0 1 .15.09c.023 0 .045.006.068.019a.595.595 0 0 1 .092.07c.054.049.08.086.08.112C.39.303.385.32.375.341a.204.204 0 0 1-.043.06l.027.132a.243.243 0 0 0 .07-.18V.205m-.08.634L.297.737.207.786l.05.1.09-.048M.442.723l-.054-.1-.07.04L.28.584l-.091.05.05.094.073-.036.041.08.089-.05z"/></symbol><use xlink:href="#j" transform="matrix(10.80524 0 0 -10.80524 264.669 113.876)" fill="#333"/><use xlink:href="#h" transform="matrix(10.80524 0 0 -10.80524 270.012 111.913)" fill="#333"/><use xlink:href="#v" transform="matrix(10.80524 0 0 -10.80524 271.64 113.095)" fill="#333"/><use xlink:href="#B" transform="matrix(10.80524 0 0 -10.80524 274.733 115.385)" fill="#333"/><use xlink:href="#i" transform="matrix(10.80524 0 0 -10.80524 280.508 111.549)" fill="#333"/><use xlink:href="#C" transform="matrix(10.80524 0 0 -10.80524 284.82 113.876)" fill="#333"/><use xlink:href="#s" transform="matrix(10.80524 0 0 -10.80524 289.077 113.965)" fill="#333"/><use xlink:href="#k" transform="matrix(10.80524 0 0 -10.80524 292.406 113.865)" fill="#333"/><use xlink:href="#b" transform="matrix(10.80524 0 0 -10.80524 268.276 124.515)" fill="#333"/><use xlink:href="#c" transform="matrix(10.80524 0 0 -10.80524 274.434 124.515)" fill="#333"/><use xlink:href="#d" transform="matrix(10.80524 0 0 -10.80524 276.456 124.515)" fill="#333"/><use xlink:href="#e" transform="matrix(10.80524 0 0 -10.80524 279.956 124.515)" fill="#333"/><use xlink:href="#f" transform="matrix(10.80524 0 0 -10.80524 283.307 126.842)" fill="#333"/><use xlink:href="#g" transform="matrix(10.80524 0 0 -10.80524 287.563 126.795)" fill="#333"/><use xlink:href="#h" transform="matrix(10.80524 0 0 -10.80524 291.578 124.88)" fill="#333"/><path d="M252.482 187.651h50.425v28.814h-50.425z" fill="#dae8fc"/><path fill="none" stroke="#6c8ebf" d="M252.482 187.651h50.425v28.814h-50.425z" stroke-width=".72035"/><use xlink:href="#n" transform="matrix(8.6442 0 0 -8.6442 267.888 205.364)"/><use xlink:href="#o" transform="matrix(8.6442 0 0 -8.6442 271.508 205.174)"/><use xlink:href="#p" transform="matrix(8.6442 0 0 -8.6442 274.123 205.242)"/><use xlink:href="#q" transform="matrix(8.6442 0 0 -8.6442 277.351 203.343)"/><use xlink:href="#r" transform="matrix(8.6442 0 0 -8.6442 284.664 203.343)"/><path d="M259.686 194.855h50.424v28.814h-50.424z" fill="#dae8fc"/><path fill="none" stroke="#6c8ebf" d="M259.686 194.855h50.424v28.814h-50.424z" stroke-width=".72035"/><use xlink:href="#n" transform="matrix(8.6442 0 0 -8.6442 275.092 212.568)"/><use xlink:href="#o" transform="matrix(8.6442 0 0 -8.6442 278.711 212.378)"/><use xlink:href="#p" transform="matrix(8.6442 0 0 -8.6442 281.327 212.445)"/><use xlink:href="#q" transform="matrix(8.6442 0 0 -8.6442 284.555 210.546)"/><use xlink:href="#r" transform="matrix(8.6442 0 0 -8.6442 291.868 210.546)"/><path d="M266.89 202.058h50.424v28.814h-50.425z" fill="#dae8fc"/><path fill="none" stroke="#6c8ebf" d="M266.89 202.058h50.424v28.814h-50.425z" stroke-width=".72035"/><use xlink:href="#n" transform="matrix(8.6442 0 0 -8.6442 282.295 219.771)"/><use xlink:href="#o" transform="matrix(8.6442 0 0 -8.6442 285.915 219.581)"/><use xlink:href="#p" transform="matrix(8.6442 0 0 -8.6442 288.53 219.649)"/><use xlink:href="#q" transform="matrix(8.6442 0 0 -8.6442 291.758 217.75)"/><use xlink:href="#r" transform="matrix(8.6442 0 0 -8.6442 299.071 217.75)"/><path d="M274.093 209.262h50.424v28.814h-50.424z" fill="#dae8fc"/><path fill="none" stroke="#6c8ebf" d="M274.093 209.262h50.424v28.814h-50.424z" stroke-width=".72035"/><use xlink:href="#n" transform="matrix(8.6442 0 0 -8.6442 289.499 226.975)"/><use xlink:href="#o" transform="matrix(8.6442 0 0 -8.6442 293.118 226.785)"/><use xlink:href="#p" transform="matrix(8.6442 0 0 -8.6442 295.734 226.852)"/><use xlink:href="#q" transform="matrix(8.6442 0 0 -8.6442 298.962 224.953)"/><use xlink:href="#r" transform="matrix(8.6442 0 0 -8.6442 306.275 224.953)"/><path d="M281.296 216.465h50.425v28.814h-50.425z" fill="#dae8fc"/><path fill="none" stroke="#6c8ebf" d="M281.296 216.465h50.425v28.814h-50.425z" stroke-width=".72035"/><use xlink:href="#j" transform="matrix(10.80524 0 0 -10.80524 289.88 229.132)"/><use xlink:href="#h" transform="matrix(10.80524 0 0 -10.80524 295.224 227.169)"/><use xlink:href="#v" transform="matrix(10.80524 0 0 -10.80524 296.852 228.35)"/><use xlink:href="#B" transform="matrix(10.80524 0 0 -10.80524 299.945 230.64)"/><use xlink:href="#i" transform="matrix(10.80524 0 0 -10.80524 305.72 226.805)"/><use xlink:href="#C" transform="matrix(10.80524 0 0 -10.80524 310.033 229.132)"/><use xlink:href="#s" transform="matrix(10.80524 0 0 -10.80524 314.29 229.221)"/><use xlink:href="#k" transform="matrix(10.80524 0 0 -10.80524 317.618 229.121)"/><use xlink:href="#f" transform="matrix(10.80524 0 0 -10.80524 293.055 242.098)"/><use xlink:href="#s" transform="matrix(10.80524 0 0 -10.80524 297.312 242.188)"/><use xlink:href="#k" transform="matrix(10.80524 0 0 -10.80524 300.64 242.087)"/><use xlink:href="#c" transform="matrix(10.80524 0 0 -10.80524 305.62 239.771)"/><use xlink:href="#t" transform="matrix(10.80524 0 0 -10.80524 307.641 239.771)"/><use xlink:href="#u" transform="matrix(10.80524 0 0 -10.80524 315.972 239.771)"/><path stroke-width="2.1610500000000004" stroke-miterlimit="10" fill="none" stroke="#000" d="M209.262 115.616h35.945"/><path d="m250.07 115.616-6.484 3.242 1.621-3.242-1.62-3.241 6.482 3.241z"/><path stroke-width="2.1610500000000004" stroke-miterlimit="10" fill="none" stroke="#000" d="m250.07 115.616-6.484 3.242 1.621-3.242-1.62-3.241 6.482 3.241zM209.262 209.081l35.945.152"/><path d="m250.07 209.254-6.498 3.213 1.635-3.234-1.614-3.25 6.476 3.271z"/><path stroke-width="2.1610500000000004" stroke-miterlimit="10" fill="none" stroke="#000" d="m250.07 209.254-6.498 3.213 1.635-3.234-1.614-3.25 6.476 3.271z"/><path d="M248.88 155.235h57.629v21.61H248.88z" fill="#ffe6cc"/><path fill="none" stroke="#d79b00" d="M248.88 155.235h57.629v21.61H248.88z" stroke-width=".72035"/><symbol id="D"><path d="M.868.207a.416.416 0 0 0-.076.005.81.81 0 0 0-.086.027.173.173 0 0 0-.05-.026.257.257 0 0 0-.067-.006h-.08C.51.13.485.077.437.043A.336.336 0 0 0 .247 0C.168 0 .107.014.064.043A.139.139 0 0 0 0 .166.36.36 0 0 0 .02.29a.83.83 0 0 0 .088.161l.03-.02A1.093 1.093 0 0 1 .074.31.207.207 0 0 1 .06.234C.06.2.078.172.114.15A.285.285 0 0 1 .26.118c.058 0 .108.011.148.034.04.022.06.05.06.082 0 .02-.004.04-.01.06A.774.774 0 0 1 .41.39L.454.52A.456.456 0 0 0 .5.425.31.31 0 0 0 .51.339h.045c.049 0 .083.006.102.017.02.012.03.033.03.063 0 .013 0 .022.003.028a.05.05 0 0 0 .018.02L.73.481A.36.36 0 0 0 .732.437.433.433 0 0 0 .725.365 1.18 1.18 0 0 1 .813.343.104.104 0 0 1 .8.386a.107.107 0 0 0-.012.033c0 .004 0 .008.002.011a.064.064 0 0 0 .008.014L.844.51A.279.279 0 0 0 .868.39V.207z"/></symbol><symbol id="E"><path d="M.395 0H0v.133h.317A.456.456 0 0 1 .24.206 8.15 8.15 0 0 0 .185.25L.17.231a1.905 1.905 0 0 0-.051.053.094.094 0 0 0-.025.064C.093.38.096.404.1.417c.007.019.02.036.042.05A.501.501 0 0 0 .27.533l.082.032V.449a1.104 1.104 0 0 1-.117-.04C.208.398.194.389.194.384.194.38.205.368.229.346.26.316.287.287.309.262A.717.717 0 0 0 .394.136V0z"/></symbol><symbol id="F"><path d="M.395 0H.322a.142.142 0 0 0-.068.016.115.115 0 0 0-.047.05A.17.17 0 0 0 .125.01.24.24 0 0 0 .05 0H0v.133h.051c.027 0 .046.001.057.004a.23.23 0 0 1 .044.019.228.228 0 0 1-.025.041C.118.207.109.212.1.212A.016.016 0 0 1 .09.208.049.049 0 0 1 .08.195L.057.198c0 .059.01.1.03.126.02.025.053.038.097.038.045 0 .08-.01.106-.027a.083.083 0 0 0 .04-.073A.116.116 0 0 0 .32.214.396.396 0 0 0 .28.153a.054.054 0 0 1 .041-.02h.073V0z"/></symbol><use xlink:href="#D" transform="matrix(8.6442 0 0 -8.6442 258.088 169.11)"/><use xlink:href="#k" transform="matrix(8.6442 0 0 -8.6442 265.614 169.178)"/><use xlink:href="#E" transform="matrix(8.6442 0 0 -8.6442 269.192 167.325)"/><use xlink:href="#F" transform="matrix(8.6442 0 0 -8.6442 272.304 167.325)"/><use xlink:href="#l" transform="matrix(8.6442 0 0 -8.6442 275.416 167.325)"/><use xlink:href="#v" transform="matrix(8.6442 0 0 -8.6442 279.298 168.562)"/><use xlink:href="#y" transform="matrix(8.6442 0 0 -8.6442 281.942 167.325)"/><use xlink:href="#z" transform="matrix(8.6442 0 0 -8.6442 287.016 167.325)"/><use xlink:href="#c" transform="matrix(8.6442 0 0 -8.6442 292.677 167.325)"/><use xlink:href="#A" transform="matrix(8.6442 0 0 -8.6442 294.295 167.325)"/><use xlink:href="#e" transform="matrix(8.6442 0 0 -8.6442 298.98 167.325)"/><path stroke-miterlimit="10" fill="none" stroke="#000" d="M277.695 187.651v-6.217" stroke-width=".72035"/><path d="m277.695 177.653 2.521 5.042-2.521-1.26-2.521 1.26 2.52-5.042z"/><path stroke-miterlimit="10" fill="none" stroke="#000" d="m277.695 177.653 2.521 5.042-2.521-1.26-2.521 1.26 2.52-5.042zM277.695 155.235v-7.657" stroke-width=".72035"/><path d="m277.695 143.796 2.521 5.043-2.521-1.261-2.521 1.26 2.52-5.042z"/><path stroke-miterlimit="10" fill="none" stroke="#000" d="m277.695 143.796 2.521 5.043-2.521-1.261-2.521 1.26 2.52-5.042z" stroke-width=".72035"/><path stroke-width="2.1610500000000004" stroke-miterlimit="10" fill="none" stroke="#000" d="m310.11 115.436 50.353.158"/><path d="m365.325 115.609-6.497 3.22 1.635-3.235-1.614-3.248 6.476 3.263z"/><path stroke-width="2.1610500000000004" stroke-miterlimit="10" fill="none" stroke="#000" d="m365.325 115.609-6.497 3.22 1.635-3.235-1.614-3.248 6.476 3.263z"/><path d="M425.366 115.616a28.811 28.811 0 0 1-34.435 28.26 28.793 28.793 0 0 1-12.658-5.986 28.802 28.802 0 0 1-9.294-13.91 28.805 28.805 0 0 1 2.162-21.947 28.793 28.793 0 0 1 9.403-10.375 28.788 28.788 0 0 1 13.184-4.717 28.798 28.798 0 0 1 16.407 3.263 28.808 28.808 0 0 1 14.678 19.79 28.804 28.804 0 0 1 .553 5.622z" fill="#f5f5f5"/><path fill="none" stroke="#666" d="M425.366 115.616a28.811 28.811 0 0 1-34.435 28.26 28.793 28.793 0 0 1-12.658-5.986 28.802 28.802 0 0 1-9.294-13.91 28.805 28.805 0 0 1 2.162-21.947 28.793 28.793 0 0 1 9.403-10.375 28.788 28.788 0 0 1 13.184-4.717 28.798 28.798 0 0 1 16.407 3.263 28.808 28.808 0 0 1 14.678 19.79 28.804 28.804 0 0 1 .553 5.622z" stroke-width=".72035"/><use xlink:href="#j" transform="matrix(10.80524 0 0 -10.80524 379.913 108.113)" fill="#333"/><use xlink:href="#h" transform="matrix(10.80524 0 0 -10.80524 385.257 106.15)" fill="#333"/><use xlink:href="#v" transform="matrix(10.80524 0 0 -10.80524 386.884 107.332)" fill="#333"/><use xlink:href="#B" transform="matrix(10.80524 0 0 -10.80524 389.977 109.622)" fill="#333"/><use xlink:href="#i" transform="matrix(10.80524 0 0 -10.80524 395.753 105.786)" fill="#333"/><use xlink:href="#C" transform="matrix(10.80524 0 0 -10.80524 400.065 108.113)" fill="#333"/><use xlink:href="#s" transform="matrix(10.80524 0 0 -10.80524 404.322 108.203)" fill="#333"/><use xlink:href="#k" transform="matrix(10.80524 0 0 -10.80524 407.65 108.102)" fill="#333"/><use xlink:href="#b" transform="matrix(10.80524 0 0 -10.80524 383.52 118.752)" fill="#333"/><use xlink:href="#c" transform="matrix(10.80524 0 0 -10.80524 389.678 118.752)" fill="#333"/><use xlink:href="#d" transform="matrix(10.80524 0 0 -10.80524 391.7 118.752)" fill="#333"/><use xlink:href="#e" transform="matrix(10.80524 0 0 -10.80524 395.201 118.752)" fill="#333"/><use xlink:href="#f" transform="matrix(10.80524 0 0 -10.80524 398.551 121.08)" fill="#333"/><use xlink:href="#g" transform="matrix(10.80524 0 0 -10.80524 402.808 121.032)" fill="#333"/><use xlink:href="#h" transform="matrix(10.80524 0 0 -10.80524 406.823 119.117)" fill="#333"/><symbol id="G"><path d="M.247 0H.153a.95.95 0 0 0-.114.234.74.74 0 0 0 .01.502C.075.81.111.878.154.939h.094A1.496 1.496 0 0 1 .156.687a.937.937 0 0 1-.01-.384A1.091 1.091 0 0 1 .247 0z"/></symbol><use xlink:href="#G" transform="matrix(4.3221 0 0 -4.3221 371.78 132.013)" fill="#333"/><use xlink:href="#v" transform="matrix(4.3221 0 0 -4.3221 372.993 131.104)" fill="#333"/><use xlink:href="#v" transform="matrix(4.3221 0 0 -4.3221 374.195 131.104)" fill="#333"/><symbol id="H"><path d="M.501.575A.155.155 0 0 0 .496.531.22.22 0 0 0 .473.484.162.162 0 0 1 .45.53C.444.536.436.54.424.54.407.54.382.53.352.51.32.49.306.473.306.46c0-.008.006-.013.018-.016A.207.207 0 0 1 .365.441H.394c.036 0 .06-.003.07-.01C.475.425.48.413.48.395A.267.267 0 0 0 .46.294.164.164 0 0 0 .39.207.644.644 0 0 0 .269.154a.384.384 0 0 0-.117-.02C.05.134 0 .18 0 .271c0 .045.006.085.017.118.013.037.04.088.08.151L.12.525A.715.715 0 0 1 .066.417.238.238 0 0 1 .048.333c0-.061.035-.092.104-.092a.388.388 0 0 1 .145.027.835.835 0 0 1 .105.044C.417.32.424.328.424.334.424.337.416.34.4.34a.614.614 0 0 1-.033.002c-.05 0-.083.007-.1.021-.014.012-.02.034-.02.065 0 .015.004.034.013.057a.384.384 0 0 0 .11.145.118.118 0 0 0 .07.027.053.053 0 0 0 .044-.022.095.095 0 0 0 .017-.059M.371.093.336.026.26.064.224 0 .15.04l.037.067L.259.07l.036.063.077-.04z"/></symbol><symbol id="I"><path d="M.433.13A.249.249 0 0 0 .418.052C.408.017.394 0 .378 0A.21.21 0 0 0 .31.02a.754.754 0 0 0-.114.06.206.206 0 0 0-.078-.043.257.257 0 0 0-.074-.011H0v.133h.044a.122.122 0 0 1 .058.015V.19c0 .04.005.074.016.103.013.033.03.057.055.072L.149.384A.995.995 0 0 0 .16.446L.18.51A.683.683 0 0 0 .4.248.29.29 0 0 0 .433.13M.24.243C.24.26.238.273.233.282.228.292.222.296.213.296A.049.049 0 0 1 .176.28.041.041 0 0 1 .163.252c0-.013.015-.026.045-.04A.139.139 0 0 1 .224.22C.234.227.24.235.24.243m.135-.09c0 .01-.007.024-.021.044a.372.372 0 0 1-.052.059A.176.176 0 0 0 .275.18.233.233 0 0 1 .366.145c.006 0 .009.002.009.007z"/></symbol><symbol id="J"><path d="M.167.101C.167.085.159.071.142.056A17.86 17.86 0 0 1 0 0c0 .014.007.028.021.04l.146.061z"/></symbol><symbol id="K"><path d="M.26.2A.374.374 0 0 0 .245.092C.235.067.213.045.177.026A.201.201 0 0 0 .083 0a.075.075 0 0 0-.06.026.105.105 0 0 0-.023.07.28.28 0 0 0 .011.08.63.63 0 0 0 .042.096L.035.284a.917.917 0 0 0 .048.109L.131.364a.642.642 0 0 0 .06-.04.202.202 0 0 0 .055-.058A.13.13 0 0 0 .26.2M.188.161c0 .006-.01.02-.034.039a.576.576 0 0 1-.066.05.165.165 0 0 1-.031-.082c0-.01.004-.02.012-.027A.047.047 0 0 1 .101.13C.117.13.136.134.157.14c.02.008.031.015.031.02z"/></symbol><symbol id="L"><path d="M.518.233.463.094A4.786 4.786 0 0 0 .246.032 1.23 1.23 0 0 0 .12.005.534.534 0 0 0 .044 0H0v.133h.053a.325.325 0 0 1 .05.003.309.309 0 0 0-.033.06.166.166 0 0 0 .052.178c.04.036.087.054.14.054C.3.428.334.416.367.393A.2.2 0 0 0 .433.312L.413.294a.296.296 0 0 1-.117.023.494.494 0 0 1-.106-.009C.153.3.134.288.134.273.134.25.179.213.27.162l.248.07m-.2.364L.26.486l-.114.06.06.11.113-.06z"/></symbol><use xlink:href="#f" transform="matrix(4.3221 0 0 -4.3221 375.425 131.416)" fill="#333"/><use xlink:href="#s" transform="matrix(4.3221 0 0 -4.3221 377.127 131.452)" fill="#333"/><use xlink:href="#k" transform="matrix(4.3221 0 0 -4.3221 378.459 131.412)" fill="#333"/><use xlink:href="#c" transform="matrix(4.3221 0 0 -4.3221 380.45 130.485)" fill="#333"/><use xlink:href="#t" transform="matrix(4.3221 0 0 -4.3221 381.259 130.485)" fill="#333"/><use xlink:href="#u" transform="matrix(4.3221 0 0 -4.3221 384.591 130.485)" fill="#333"/><use xlink:href="#v" transform="matrix(4.3221 0 0 -4.3221 385.91 131.104)" fill="#333"/><use xlink:href="#H" transform="matrix(4.3221 0 0 -4.3221 387.43 131.944)" fill="#333"/><use xlink:href="#c" transform="matrix(4.3221 0 0 -4.3221 389.955 130.485)" fill="#333"/><use xlink:href="#I" transform="matrix(4.3221 0 0 -4.3221 390.763 130.597)" fill="#333"/><use xlink:href="#v" transform="matrix(4.3221 0 0 -4.3221 392.938 131.104)" fill="#333"/><use xlink:href="#B" transform="matrix(4.3221 0 0 -4.3221 392.979 132.02)" fill="#333"/><use xlink:href="#i" transform="matrix(4.3221 0 0 -4.3221 395.289 130.485)" fill="#333"/><use xlink:href="#C" transform="matrix(4.3221 0 0 -4.3221 397.014 131.416)" fill="#333"/><use xlink:href="#s" transform="matrix(4.3221 0 0 -4.3221 398.716 131.452)" fill="#333"/><use xlink:href="#J" transform="matrix(4.3221 0 0 -4.3221 400.452 132.125)" fill="#333"/><use xlink:href="#k" transform="matrix(4.3221 0 0 -4.3221 400.05 131.412)" fill="#333"/><use xlink:href="#v" transform="matrix(4.3221 0 0 -4.3221 401.987 131.104)" fill="#333"/><use xlink:href="#c" transform="matrix(4.3221 0 0 -4.3221 403.244 130.485)" fill="#333"/><use xlink:href="#g" transform="matrix(4.3221 0 0 -4.3221 404.053 131.397)" fill="#333"/><use xlink:href="#v" transform="matrix(4.3221 0 0 -4.3221 405.372 131.104)" fill="#333"/><use xlink:href="#K" transform="matrix(4.3221 0 0 -4.3221 406.759 130.56)" fill="#333"/><use xlink:href="#x" transform="matrix(4.3221 0 0 -4.3221 408.277 130.485)" fill="#333"/><use xlink:href="#z" transform="matrix(4.3221 0 0 -4.3221 409.39 130.485)" fill="#333"/><use xlink:href="#v" transform="matrix(4.3221 0 0 -4.3221 412.166 131.104)" fill="#333"/><use xlink:href="#B" transform="matrix(4.3221 0 0 -4.3221 413.403 132.02)" fill="#333"/><use xlink:href="#e" transform="matrix(4.3221 0 0 -4.3221 415.714 130.485)" fill="#333"/><use xlink:href="#L" transform="matrix(4.3221 0 0 -4.3221 416.885 130.485)" fill="#333"/><symbol id="M"><path d="M.001 0A.986.986 0 0 1 .11.355a.9.9 0 0 1-.018.332A1.46 1.46 0 0 1 0 .938h.093A.89.89 0 0 0 .208.716.72.72 0 0 0 .216.258.92.92 0 0 0 .096 0H0z"/></symbol><use xlink:href="#M" transform="matrix(4.3221 0 0 -4.3221 419.52 132.013)" fill="#333"/><path stroke-width="1.4407" stroke-miterlimit="10" fill="none" stroke="#000" d="M28.814 115.256H7.204V309.75h141.735"/><path d="m153.262 309.75-5.763 2.882 1.44-2.882-1.44-2.881 5.763 2.881z"/><path stroke-width="1.4407" stroke-miterlimit="10" fill="none" stroke="#000" d="m153.262 309.75-5.763 2.882 1.44-2.882-1.44-2.881 5.763 2.881z"/><path d="m155.235 288.5 28.814 14.407v14.407l-28.814 14.407V288.5z" fill="#9e9e9e"/><path d="m205.66 331.721-28.814-14.407v-14.407L205.66 288.5v43.221z" fill="#9e9e9e"/><use xlink:href="#b" transform="matrix(9.36454 0 0 -9.36454 158.55 312.012)"/><use xlink:href="#c" transform="matrix(9.36454 0 0 -9.36454 163.887 312.012)"/><use xlink:href="#d" transform="matrix(9.36454 0 0 -9.36454 165.64 312.012)"/><use xlink:href="#e" transform="matrix(9.36454 0 0 -9.36454 168.674 312.012)"/><use xlink:href="#f" transform="matrix(9.36454 0 0 -9.36454 171.577 314.029)"/><use xlink:href="#g" transform="matrix(9.36454 0 0 -9.36454 175.266 313.988)"/><use xlink:href="#h" transform="matrix(9.36454 0 0 -9.36454 178.746 312.328)"/><use xlink:href="#v" transform="matrix(9.36454 0 0 -9.36454 180.156 313.352)"/><use xlink:href="#w" transform="matrix(9.36454 0 0 -9.36454 182.92 313.69)"/><use xlink:href="#x" transform="matrix(9.36454 0 0 -9.36454 187.463 312.012)"/><use xlink:href="#l" transform="matrix(9.36454 0 0 -9.36454 189.875 312.012)"/><path d="M425.366 302.907a28.812 28.812 0 0 1-37.178 27.573 28.794 28.794 0 0 1-12.01-7.198 28.788 28.788 0 0 1-6.246-9.348 28.804 28.804 0 0 1-.953-19.391 28.81 28.81 0 0 1 24.75-20.311 28.789 28.789 0 0 1 13.85 2.054A28.8 28.8 0 0 1 420.51 286.9a28.801 28.801 0 0 1 4.856 16.008z" fill="#f5f5f5"/><path fill="none" stroke="#666" d="M425.366 302.907a28.812 28.812 0 0 1-37.178 27.573 28.794 28.794 0 0 1-12.01-7.198 28.788 28.788 0 0 1-6.246-9.348 28.804 28.804 0 0 1-.953-19.391 28.81 28.81 0 0 1 24.75-20.311 28.789 28.789 0 0 1 13.85 2.054A28.8 28.8 0 0 1 420.51 286.9a28.801 28.801 0 0 1 4.856 16.008z" stroke-width=".72035"/><use xlink:href="#j" transform="matrix(10.80524 0 0 -10.80524 379.925 301.167)" fill="#333"/><use xlink:href="#h" transform="matrix(10.80524 0 0 -10.80524 385.268 299.204)" fill="#333"/><use xlink:href="#v" transform="matrix(10.80524 0 0 -10.80524 386.895 300.386)" fill="#333"/><use xlink:href="#B" transform="matrix(10.80524 0 0 -10.80524 389.989 302.676)" fill="#333"/><use xlink:href="#i" transform="matrix(10.80524 0 0 -10.80524 395.764 298.84)" fill="#333"/><use xlink:href="#C" transform="matrix(10.80524 0 0 -10.80524 400.076 301.167)" fill="#333"/><use xlink:href="#s" transform="matrix(10.80524 0 0 -10.80524 404.333 301.256)" fill="#333"/><use xlink:href="#k" transform="matrix(10.80524 0 0 -10.80524 407.662 301.156)" fill="#333"/><use xlink:href="#b" transform="matrix(10.80524 0 0 -10.80524 383.532 311.806)" fill="#333"/><use xlink:href="#c" transform="matrix(10.80524 0 0 -10.80524 389.69 311.806)" fill="#333"/><use xlink:href="#d" transform="matrix(10.80524 0 0 -10.80524 391.712 311.806)" fill="#333"/><use xlink:href="#e" transform="matrix(10.80524 0 0 -10.80524 395.212 311.806)" fill="#333"/><use xlink:href="#f" transform="matrix(10.80524 0 0 -10.80524 398.563 314.133)" fill="#333"/><use xlink:href="#g" transform="matrix(10.80524 0 0 -10.80524 402.82 314.085)" fill="#333"/><use xlink:href="#h" transform="matrix(10.80524 0 0 -10.80524 406.834 312.17)" fill="#333"/><symbol id="N"><path d="M.868.207a.416.416 0 0 0-.076.005.81.81 0 0 0-.086.027.173.173 0 0 0-.05-.026.257.257 0 0 0-.067-.006h-.08C.51.13.485.077.437.043A.336.336 0 0 0 .247 0C.168 0 .107.014.064.043A.139.139 0 0 0 0 .166.36.36 0 0 0 .02.29a.83.83 0 0 0 .088.161l.03-.02A1.093 1.093 0 0 1 .074.31.207.207 0 0 1 .06.234C.06.2.078.172.114.15A.285.285 0 0 1 .26.118c.058 0 .108.011.148.034.04.022.06.05.06.082 0 .02-.004.04-.01.06A.774.774 0 0 1 .41.39L.454.52A.456.456 0 0 0 .5.425.31.31 0 0 0 .51.339h.045c.049 0 .083.006.102.017.02.012.03.033.03.063 0 .013 0 .022.003.028a.05.05 0 0 0 .018.02L.73.481A.36.36 0 0 0 .732.437.433.433 0 0 0 .725.365 1.18 1.18 0 0 1 .813.343.104.104 0 0 1 .8.386a.107.107 0 0 0-.012.033c0 .004 0 .008.002.011a.064.064 0 0 0 .008.014L.844.51A.279.279 0 0 0 .868.39V.207M.733.791.685.689.593.738l.05.1.09-.047M.828.675l-.054-.1-.069.04L.666.536l-.09.05.05.095.072-.036.041.079.09-.05z"/></symbol><use xlink:href="#j" transform="matrix(11.5256 0 0 -11.5256 161.313 282.49)"/><use xlink:href="#k" transform="matrix(11.5256 0 0 -11.5256 166.281 282.478)"/><use xlink:href="#l" transform="matrix(11.5256 0 0 -11.5256 171.052 280.008)"/><use xlink:href="#m" transform="matrix(11.5256 0 0 -11.5256 176.262 280.396)"/><use xlink:href="#v" transform="matrix(11.5256 0 0 -11.5256 178.972 281.657)"/><use xlink:href="#N" transform="matrix(11.5256 0 0 -11.5256 179.333 282.388)"/><use xlink:href="#e" transform="matrix(11.5256 0 0 -11.5256 188.94 280.008)"/><use xlink:href="#h" transform="matrix(11.5256 0 0 -11.5256 193.223 280.396)"/><use xlink:href="#x" transform="matrix(11.5256 0 0 -11.5256 195.55 280.008)"/><path stroke-width="2.1610500000000004" stroke-miterlimit="10" fill="none" stroke="#000" d="m205.66 310.11 156.59-.662"/><path d="m367.112 309.426-6.469 3.27 1.606-3.248-1.635-3.235 6.498 3.213z"/><path stroke-width="2.1610500000000004" stroke-miterlimit="10" fill="none" stroke="#000" d="m367.112 309.426-6.469 3.27 1.606-3.248-1.635-3.235 6.498 3.213z"/><path d="M360.535 187.651h79.238v43.221h-79.238z" fill="#d5e8d4"/><path fill="none" stroke="#82b366" d="M360.535 187.651h79.238v43.221h-79.238z" stroke-width=".72035"/><symbol id="O"><path d="M.558.336H0V.47h.347a.464.464 0 0 1-.11.088.183.183 0 0 1-.14.017.261.261 0 0 0 .06.091.11.11 0 0 0 .075.03.132.132 0 0 0 .062-.016.322.322 0 0 0 .067-.05A1.76 1.76 0 0 0 .444.542.328.328 0 0 1 .5.49.187.187 0 0 1 .558.47V.335M.408.25.357.156.285.192.244.112l-.09.05.054.1.07-.039L.317.3l.09-.05M.39.1.34 0 .25.047l.048.101L.39.1z"/></symbol><use xlink:href="#N" transform="matrix(10.0849 0 0 -10.0849 361.244 213.143)"/><use xlink:href="#e" transform="matrix(10.0849 0 0 -10.0849 369.65 211.06)"/><use xlink:href="#h" transform="matrix(10.0849 0 0 -10.0849 373.398 211.4)"/><use xlink:href="#x" transform="matrix(10.0849 0 0 -10.0849 375.434 211.06)"/><use xlink:href="#v" transform="matrix(10.0849 0 0 -10.0849 378.376 212.503)"/><use xlink:href="#N" transform="matrix(10.0849 0 0 -10.0849 381.495 213.143)"/><use xlink:href="#e" transform="matrix(10.0849 0 0 -10.0849 389.901 211.06)"/><use xlink:href="#c" transform="matrix(10.0849 0 0 -10.0849 393.107 211.06)"/><use xlink:href="#E" transform="matrix(10.0849 0 0 -10.0849 394.994 211.06)"/><use xlink:href="#O" transform="matrix(10.0849 0 0 -10.0849 398.624 214.453)"/><use xlink:href="#v" transform="matrix(10.0849 0 0 -10.0849 404.244 212.503)"/><use xlink:href="#H" transform="matrix(10.0849 0 0 -10.0849 407.79 214.463)"/><use xlink:href="#c" transform="matrix(10.0849 0 0 -10.0849 413.68 211.06)"/><use xlink:href="#I" transform="matrix(10.0849 0 0 -10.0849 415.567 211.321)"/><use xlink:href="#v" transform="matrix(10.0849 0 0 -10.0849 420.642 212.503)"/><use xlink:href="#N" transform="matrix(10.0849 0 0 -10.0849 420.975 213.143)"/><use xlink:href="#k" transform="matrix(10.0849 0 0 -10.0849 429.756 213.222)"/><use xlink:href="#f" transform="matrix(10.0849 0 0 -10.0849 434.324 213.232)"/><path stroke-miterlimit="10" fill="none" stroke="#000" d="m399.78 144.43.223 38.632" stroke-width=".72035"/><path d="m400.024 186.844-2.55-5.028 2.529 1.246 2.514-1.275-2.493 5.057z"/><path stroke-miterlimit="10" fill="none" stroke="#000" d="m400.024 186.844-2.55-5.028 2.529 1.246 2.514-1.275-2.493 5.057zM399.78 273.747l.33-38.286" stroke-width=".72035"/><path d="m400.147 231.679 2.478 5.064-2.514-1.282-2.529 1.239 2.565-5.021z"/><path stroke-miterlimit="10" fill="none" stroke="#000" d="m400.147 231.679 2.478 5.064-2.514-1.282-2.529 1.239 2.565-5.021z" stroke-width=".72035"/><path d="M454.18 302.907h36.018v14.407H454.18z" fill="#fff"/><path fill="none" stroke="#000" d="M454.18 302.907h36.018v14.407H454.18z" stroke-width=".72035"/><symbol id="P"><path d="M.22 0H.152a.063.063 0 0 0-.053.027.174.174 0 0 0-.027.07C.066.127.062.166.058.21L.052.324a.747.747 0 0 1-.009.088.193.193 0 0 1-.013.05.128.128 0 0 1-.03.04l.06.095a.662.662 0 0 0 .027-.14C.09.423.093.343.097.217A.286.286 0 0 1 .122.105c.01-.013.02-.02.03-.02H.22V0z"/></symbol><symbol id="Q"><path d="M.419.1A.141.141 0 0 0 .4.039C.39.013.376 0 .363 0A.227.227 0 0 0 .29.025a.707.707 0 0 0-.085.046A.613.613 0 0 0 .12.03.229.229 0 0 0 .044.018H0v.085h.044l.039.003.05.012a1.29 1.29 0 0 0-.026.019C.098.145.094.153.094.16v.012a.08.08 0 0 0 .007.015L.15.272c.007.011.013.02.018.023a.06.06 0 0 0 .022.011C.167.321.156.332.156.34c0 .006.007.023.021.05L.2.43C.22.41.247.382.278.344.318.296.35.253.373.216A.248.248 0 0 0 .419.1M.247.207A.056.056 0 0 1 .238.24C.231.25.221.254.206.254A.067.067 0 0 1 .164.24C.15.23.144.218.144.204c0-.014.02-.031.06-.053.014.009.024.018.03.026.009.01.013.02.013.03M.365.095c0 .011-.01.029-.028.053a.516.516 0 0 1-.042.049.101.101 0 0 0-.01-.045A.074.074 0 0 0 .257.12l.06-.03A.104.104 0 0 1 .35.08c.004 0 .007.001.01.004a.016.016 0 0 1 .004.01z"/></symbol><symbol id="R"><path d="M0 0z"/></symbol><symbol id="S"><path d="M.685.19H.22a.294.294 0 0 0-.15.032A.138.138 0 0 0 0 .351c0 .03.007.06.02.092a.755.755 0 0 0 .036.065L.07.5A2.78 2.78 0 0 1 .05.454.167.167 0 0 1 .034.392c0-.038.02-.068.06-.09A.295.295 0 0 1 .234.275h.413v.014a.25.25 0 0 1-.013.088.134.134 0 0 1-.045.06l.038.08A.601.601 0 0 0 .652.48.31.31 0 0 0 .685.322V.19M.405.071.367 0l-.08.041.037.071.08-.041z"/></symbol><symbol id="T"><path d="M.565 0H.527a.155.155 0 0 0-.053.008.146.146 0 0 0-.041.025.144.144 0 0 0-.04-.024A.212.212 0 0 0 .324 0H.292a.14.14 0 0 0-.05.01A.274.274 0 0 0 .2.03.164.164 0 0 0 .158.007.226.226 0 0 0 .094 0H0v.085h.094c.027 0 .045.002.057.007.019.007.028.022.028.045a.275.275 0 0 1-.007.06l.02.03A.7.7 0 0 1 .215.16.17.17 0 0 1 .249.107.074.074 0 0 1 .303.085h.032C.36.085.378.089.39.096c.013.009.02.022.02.04l-.003.03a.476.476 0 0 1-.005.03l.02.03.01-.046A.178.178 0 0 1 .466.105.057.057 0 0 1 .51.086c.009 0 .016.003.02.008a.028.028 0 0 1 .01.021.105.105 0 0 1-.021.058 1.65 1.65 0 0 1-.024.032l.032.053A.233.233 0 0 0 .554.206a.295.295 0 0 0 .01-.089V0z"/></symbol><symbol id="U"><path d="M.564.318H0v.085h.398a1.095 1.095 0 0 1-.084.06.385.385 0 0 1-.078.04.244.244 0 0 1-.08.013.377.377 0 0 1-.05-.003.16.16 0 0 0 .037.058c.022.021.05.032.084.032C.26.603.3.586.345.553.367.538.404.508.455.462a.257.257 0 0 1 .08-.058h.029V.318M.379.203.343.132l-.08.04L.3.245.379.203M.362.07.326 0l-.08.042.038.071.078-.042M.268.157.23.087.151.13l.037.07.08-.042z"/></symbol><symbol id="V"><path d="M.278.19H0v.084h.243a.221.221 0 0 1-.014.088.263.263 0 0 1-.046.06l.038.08A.277.277 0 0 0 .265.433.415.415 0 0 0 .278.31v-.12M.228.071.19 0 .111.041l.036.071L.23.071z"/></symbol><use xlink:href="#P" transform="matrix(8.6442 0 0 -8.6442 458.132 311.395)"/><use xlink:href="#Q" transform="matrix(8.6442 0 0 -8.6442 459.736 311.551)"/><use xlink:href="#R" transform="matrix(8.6442 0 0 -8.6442 463.922 312.632)"/><use xlink:href="#S" transform="matrix(8.6442 0 0 -8.6442 464.172 313.033)"/><use xlink:href="#T" transform="matrix(8.6442 0 0 -8.6442 469.795 311.395)"/><use xlink:href="#U" transform="matrix(8.6442 0 0 -8.6442 474.386 314.147)"/><use xlink:href="#n" transform="matrix(8.6442 0 0 -8.6442 479.575 313.417)"/><use xlink:href="#V" transform="matrix(8.6442 0 0 -8.6442 483.194 313.033)"/><use xlink:href="#R" transform="matrix(8.6442 0 0 -8.6442 485.599 312.632)"/><path stroke-miterlimit="10" fill="none" stroke="#000" d="M425.366 310.11h24.226" stroke-width=".72035"/><path d="m453.374 310.11-5.043 2.522 1.26-2.522-1.26-2.52 5.043 2.52z"/><path stroke-miterlimit="10" fill="none" stroke="#000" d="m453.374 310.11-5.043 2.522 1.26-2.522-1.26-2.52 5.043 2.52zM158.837 166.04h85.455" stroke-width=".72035"/><path d="m248.074 166.04-5.042 2.522 1.26-2.521-1.26-2.522 5.042 2.522z"/><path stroke-miterlimit="10" fill="none" stroke="#000" d="m248.074 166.04-5.042 2.522 1.26-2.521-1.26-2.522 5.042 2.522z" stroke-width=".72035"/><path d="M439.773 208.901h5.763v.72h-5.763v-.72zm11.526 0h5.763v.72h-5.763v-.72zm11.526 0h5.762v.72h-5.762v-.72zm11.525 0h5.763v.72h-5.763v-.72zm11.526 0h5.763v.72h-5.763v-.72zm11.525 0h5.763v.72h-5.763v-.72zm11.526 0h5.763v.72h-5.763v-.72zm11.526 0h5.762v.72h-5.762v-.72zm11.525 0h5.763v.72h-5.763v-.72zm9.004 3.242v5.763h-.72v-5.763h.72zm0 11.526v5.762h-.72v-5.762h.72zm0 11.525v5.763h-.72v-5.763h.72zm0 11.526v5.762h-.72v-5.762h.72zm0 11.525v5.763h-.72v-5.763h.72zm0 11.526v5.763h-.72v-5.763h.72zm0 11.525v5.763h-.72v-5.763h.72zm0 11.526v5.763h-.72v-5.763h.72zm0 11.526v5.762h-.72v-5.762h.72zm0 11.525v5.763h-.72v-5.763h.72zm0 11.526v5.763h-.72v-5.763h.72zm0 11.525v5.763h-.72v-5.763h.72zm0 11.526v3.242h-3.241v-.72h2.881v.36h-.36v-2.882h.72zm-9.004 3.242h-5.763v-.72h5.763v.72zm-11.525 0h-5.763v-.72h5.763v.72zm-11.526 0h-5.763v-.72h5.763v.72zm-11.526 0h-5.762v-.72h5.762v.72zm-11.525 0h-5.763v-.72h5.763v.72zm-11.526 0h-5.763v-.72h5.763v.72zm-11.525 0h-5.763v-.72h5.763v.72zm-11.526 0h-5.763v-.72h5.763v.72zm-11.526 0h-5.762v-.72h5.762v.72zm-11.525 0h-5.763v-.72h5.763v.72zm-11.526 0h-5.763v-.72h5.763v.72zm-11.525 0h-5.763v-.72h5.763v.72zm-11.526 0h-5.763v-.72h5.763v.72zm-11.526 0h-5.762v-.72h5.762v.72zm-11.525 0h-5.763v-.72h5.763v.72zm-11.526 0h-5.763v-.72h5.763v.72zm-11.525 0h-5.763v-.72h5.763v.72zm-11.526 0h-5.763v-.72h5.763v.72zm-11.526 0h-5.762v-.72h5.762v.72zm-11.525 0h-5.763v-.72h5.763v.72zm-11.526 0h-5.763v-.72h5.763v.72zm-11.525 0h-5.763v-.72h5.763v.72zm-11.526 0h-5.763v-.72h5.763v.72zm-11.526 0h-5.762v-.72h5.762v.72zm-11.525 0H249.6v-.72h5.763v.72zm-11.526 0h-5.762v-.72h5.762v.72zm-11.525 0h-5.763v-.72h5.763v.72zm-11.526 0h-5.763v-.72h5.763v.72zm-11.525 0h-5.763v-.72h5.763v.72zm-11.526 0h-5.763v-.72h5.763v.72zm-11.526 0h-5.762v-.72h5.762v.72zm-6.123-6.123v-5.763h.72v5.763h-.72zM180.448 336.13l2.52 5.042-2.52-1.26-2.522 1.26 2.522-5.043z"/><path stroke-miterlimit="10" fill="none" stroke="#000" d="m180.448 336.13 2.52 5.042-2.52-1.26-2.522 1.26 2.522-5.043z" stroke-width=".72035"/><path d="M490.198 309.75h5.763v.72h-5.763m11.525-.72h5.763v.72h-5.763m11.526-.72h5.763v.72h-5.763m11.526-.72h5.762v.72h-5.762M539.816 310.11l-5.043 2.522 1.26-2.522-1.26-2.52 5.043 2.52z"/><path stroke-miterlimit="10" fill="none" stroke="#000" d="m539.816 310.11-5.043 2.522 1.26-2.522-1.26-2.52 5.043 2.52z" stroke-width=".72035"/><symbol id="W"><path d="M.414 0H.35a.071.071 0 0 0-.033.007A.113.113 0 0 0 .27.06a.392.392 0 0 0-.035.142.59.59 0 0 0-.051-.058C.166.126.15.118.139.118A.12.12 0 0 0 .115.12l-.06.011A.413.413 0 0 0 .01.144C.003.146 0 .15 0 .156c0 .009.011.036.034.083.022.047.039.076.049.087.008.008.023.02.043.034.013.008.03.02.053.033l.026.015a.2.2 0 0 0-.003.027c0 .012.003.028.008.046a.427.427 0 0 0 .031.07L.288.247a.25.25 0 0 1 .03-.098A.037.037 0 0 1 .35.133h.064V0m-.19.276-.01.058A.319.319 0 0 1 .147.296a.223.223 0 0 1-.02-.018C.12.271.117.266.117.262S.123.254.134.252A.15.15 0 0 1 .168.247.05.05 0 0 1 .19.253a.299.299 0 0 1 .034.023z"/></symbol><symbol id="X"><path d="M.481.11.301 0C.197 0 .12.02.072.06.024.1 0 .162 0 .247a.369.369 0 0 0 .142.297C.138.568.129.58.115.58A.016.016 0 0 1 .103.576.259.259 0 0 0 .092.563L.068.567c0 .046.01.083.03.113a.11.11 0 0 0 .096.05C.231.73.261.72.284.7A.098.098 0 0 0 .32.62.11.11 0 0 0 .262.524a.144.144 0 0 1 .104-.05h.069V.341H.366A.202.202 0 0 0 .254.37.259.259 0 0 0 .17.477.282.282 0 0 1 .085.394a.173.173 0 0 1-.03-.095c0-.058.026-.1.077-.128A.524.524 0 0 1 .373.129 3.123 3.123 0 0 1 .479.13L.48.109z"/></symbol><use xlink:href="#W" transform="matrix(8.6442 0 0 -8.6442 482.422 194.698)"/><use xlink:href="#e" transform="matrix(8.6442 0 0 -8.6442 485.7 194.698)"/><use xlink:href="#s" transform="matrix(8.6442 0 0 -8.6442 488.044 196.631)"/><use xlink:href="#j" transform="matrix(8.6442 0 0 -8.6442 490.724 196.56)"/><use xlink:href="#I" transform="matrix(8.6442 0 0 -8.6442 494.129 194.922)"/><use xlink:href="#v" transform="matrix(8.6442 0 0 -8.6442 498.479 195.935)"/><use xlink:href="#X" transform="matrix(8.6442 0 0 -8.6442 501.177 197.649)"/><use xlink:href="#g" transform="matrix(8.6442 0 0 -8.6442 504.64 196.522)"/><use xlink:href="#c" transform="matrix(8.6442 0 0 -8.6442 507.388 194.698)"/><use xlink:href="#u" transform="matrix(8.6442 0 0 -8.6442 509.006 194.698)"/><use xlink:href="#N" transform="matrix(8.6442 0 0 -8.6442 487.418 207.289)"/><use xlink:href="#e" transform="matrix(8.6442 0 0 -8.6442 494.623 205.504)"/><use xlink:href="#c" transform="matrix(8.6442 0 0 -8.6442 497.371 205.504)"/><use xlink:href="#E" transform="matrix(8.6442 0 0 -8.6442 498.989 205.504)"/><use xlink:href="#O" transform="matrix(8.6442 0 0 -8.6442 502.1 208.412)"/><use xlink:href="#W" transform="matrix(8.6442 0 0 -8.6442 496.829 291.946)"/><use xlink:href="#e" transform="matrix(8.6442 0 0 -8.6442 500.108 291.946)"/><use xlink:href="#s" transform="matrix(8.6442 0 0 -8.6442 502.45 293.879)"/><use xlink:href="#j" transform="matrix(8.6442 0 0 -8.6442 505.13 293.807)"/><use xlink:href="#I" transform="matrix(8.6442 0 0 -8.6442 508.536 292.17)"/><use xlink:href="#v" transform="matrix(8.6442 0 0 -8.6442 512.886 293.182)"/><use xlink:href="#X" transform="matrix(8.6442 0 0 -8.6442 515.584 294.896)"/><use xlink:href="#g" transform="matrix(8.6442 0 0 -8.6442 519.047 293.769)"/><use xlink:href="#c" transform="matrix(8.6442 0 0 -8.6442 521.795 291.946)"/><use xlink:href="#u" transform="matrix(8.6442 0 0 -8.6442 523.413 291.946)"/><symbol id="Y"><path d="M.643 0A.315.315 0 0 0 .48.033.173.173 0 0 0 .43.006.257.257 0 0 0 .363 0h-.08a.075.075 0 0 0-.051.017.146.146 0 0 0-.034.057.168.168 0 0 0-.06-.059A.142.142 0 0 0 .07 0H0v.133h.07c.034 0 .062.01.085.029C.185.187.2.225.2.276L.232.27a2.64 2.64 0 0 1-.003-.08c0-.017.006-.03.017-.042a.055.055 0 0 1 .04-.016h.06c.039 0 .067.005.084.016.02.014.03.039.03.075 0 .008.003.015.008.021a.13.13 0 0 0 .018.016l.019.015A.36.36 0 0 0 .507.23.433.433 0 0 0 .499.159.348.348 0 0 1 .587.134a.109.109 0 0 1-.012.043.11.11 0 0 0-.012.035c0 .009 0 .015.003.02 0 .002.004.007.01.015l.042.056A.279.279 0 0 0 .642.184V0z"/></symbol><symbol id="Z"><path d="M.306.336H0V.47h.257a.152.152 0 0 1-.02.056.363.363 0 0 1-.034.044l.04.117A.228.228 0 0 0 .291.599.499.499 0 0 0 .306.464V.336M.298.25.248.156.174.192.134.112l-.09.05.055.1.069-.039L.207.3l.09-.05M.28.1.23 0 .14.047l.048.101L.28.1z"/></symbol><use xlink:href="#y" transform="matrix(8.6442 0 0 -8.6442 496.516 302.75)"/><use xlink:href="#Y" transform="matrix(8.6442 0 0 -8.6442 501.59 302.75)"/><use xlink:href="#f" transform="matrix(8.6442 0 0 -8.6442 507.184 304.612)"/><use xlink:href="#Z" transform="matrix(8.6442 0 0 -8.6442 510.59 305.659)"/><use xlink:href="#f" transform="matrix(8.6442 0 0 -8.6442 513.27 304.612)"/><use xlink:href="#Y" transform="matrix(8.6442 0 0 -8.6442 516.674 302.75)"/><use xlink:href="#c" transform="matrix(8.6442 0 0 -8.6442 522.335 302.75)"/><use xlink:href="#g" transform="matrix(8.6442 0 0 -8.6442 523.953 304.574)"/></g></svg>